

<svg width="300" height="200" xmlns="http://www.w3.org/2000/svg">
<defs>
   
        <filter id="idfiltre">
<feGaussianBlur stdDeviation="9" />
        </filter>
      <pattern id="dyeoo" patternUnits="userSpaceOnUse" width="24" height="13.856406460551018"><path d="M 8,0 l 8,0 l 4,6.928203230275509 l -4,6.928203230275509 l -8,0 l -4,-6.928203230275509 Z M 0,6.928203230275509 l 4,0 M 24,6.928203230275509 l -4,0" fill="transparent" stroke="#ffcc29" stroke-width="2" stroke-linecap="square" shape-rendering="auto"></path></pattern>
        <pattern id="dyiyy" patternUnits="userSpaceOnUse" width="10" height="10"><rect width="40" height="40" fill="white"></rect><path d="M 2.5,2.5l5,5M7.5,2.5l5,-5 M2.5,7.5l-5,5M7.5,12.5l5,-5 M-2.5,2.5l5,-5" fill="red" stroke="orange" stroke-width="1" stroke-linecap="square" shape-rendering="auto"></path></pattern>
 </defs>

 

 <circle cx="150" cy="100" r="70" fill="url(#dyeoo)"/>
   
    <circle cx="130" cy="70" r="25" fill="url(#dyiyy)"/>
    <circle cx="170" cy="70" r="25" fill="url(#dyiyy)"/>
    <circle cx="130" cy="70" r="10" fill="black"/>
    <circle cx="170" cy="70" r="10" fill="black"/>
    <path d="M110 110 C 120 140, 180 140, 190 110" stroke="black" style="fill:black;filter:url(#idfiltre)"/>

</svg>

